<mxfile host="app.diagrams.net" modified="2022-01-21T03:52:07.836Z" agent="5.0 (Windows)" etag="UOK9SG_zjiOV2R0A1H9x" version="16.2.7" type="github">
  <diagram id="Arsce1lhnxzf3GvLfII_" name="第1頁">
    <mxGraphModel dx="1422" dy="744" grid="1" gridSize="10" guides="1" tooltips="1" connect="1" arrows="1" fold="1" page="1" pageScale="1" pageWidth="1169" pageHeight="827" math="0" shadow="0">
      <root>
        <mxCell id="0" />
        <mxCell id="1" parent="0" />
        <mxCell id="E4SNyfFL3VlagMdcjmCh-1" value="Traveller" style="rounded=1;whiteSpace=wrap;html=1;fillColor=#FF6602;strokeColor=#BD7000;fontColor=#FFFFFF;fontSize=20;" parent="1" vertex="1">
          <mxGeometry x="360" y="270" width="120" height="60" as="geometry" />
        </mxCell>
        <mxCell id="E4SNyfFL3VlagMdcjmCh-4" value="1" style="text;html=1;align=center;verticalAlign=middle;resizable=0;points=[];autosize=1;strokeColor=none;fillColor=none;" parent="1" vertex="1">
          <mxGeometry x="490" y="280" width="20" height="20" as="geometry" />
        </mxCell>
        <mxCell id="E4SNyfFL3VlagMdcjmCh-5" value="&lt;div&gt;M&lt;/div&gt;" style="text;html=1;align=center;verticalAlign=middle;resizable=0;points=[];autosize=1;strokeColor=none;fillColor=none;" parent="1" vertex="1">
          <mxGeometry x="590" y="280" width="20" height="20" as="geometry" />
        </mxCell>
        <mxCell id="E4SNyfFL3VlagMdcjmCh-12" style="edgeStyle=none;rounded=0;orthogonalLoop=1;jettySize=auto;html=1;entryX=0.5;entryY=0;entryDx=0;entryDy=0;fontSize=16;fontColor=#FFFFFF;endArrow=none;endFill=0;strokeColor=#FF6602;strokeWidth=3;" parent="1" source="E4SNyfFL3VlagMdcjmCh-6" target="E4SNyfFL3VlagMdcjmCh-1" edge="1">
          <mxGeometry relative="1" as="geometry" />
        </mxCell>
        <mxCell id="E4SNyfFL3VlagMdcjmCh-6" value="id" style="ellipse;whiteSpace=wrap;html=1;fillColor=#FFE598;fontSize=16;" parent="1" vertex="1">
          <mxGeometry x="285" y="160" width="90" height="60" as="geometry" />
        </mxCell>
        <mxCell id="E4SNyfFL3VlagMdcjmCh-9" value="Ticket" style="rounded=1;whiteSpace=wrap;html=1;fillColor=#FF6602;strokeColor=#BD7000;fontColor=#FFFFFF;fontSize=20;" parent="1" vertex="1">
          <mxGeometry x="620" y="270" width="120" height="60" as="geometry" />
        </mxCell>
        <mxCell id="E4SNyfFL3VlagMdcjmCh-10" value="name" style="ellipse;whiteSpace=wrap;html=1;fillColor=#FFE598;fontSize=16;" parent="1" vertex="1">
          <mxGeometry x="280" y="389" width="90" height="60" as="geometry" />
        </mxCell>
        <mxCell id="E4SNyfFL3VlagMdcjmCh-26" style="edgeStyle=none;rounded=0;orthogonalLoop=1;jettySize=auto;html=1;fontSize=16;fontColor=#FFFFFF;endArrow=none;endFill=0;strokeColor=#FF6602;strokeWidth=3;" parent="1" source="E4SNyfFL3VlagMdcjmCh-19" edge="1">
          <mxGeometry relative="1" as="geometry">
            <mxPoint x="686" y="330" as="targetPoint" />
          </mxGeometry>
        </mxCell>
        <mxCell id="E4SNyfFL3VlagMdcjmCh-19" value="id" style="ellipse;whiteSpace=wrap;html=1;fillColor=#FFE598;fontSize=16;" parent="1" vertex="1">
          <mxGeometry x="660" y="389" width="90" height="60" as="geometry" />
        </mxCell>
        <mxCell id="E4SNyfFL3VlagMdcjmCh-27" style="edgeStyle=none;rounded=0;orthogonalLoop=1;jettySize=auto;html=1;entryX=1;entryY=0.5;entryDx=0;entryDy=0;fontSize=16;fontColor=#FFFFFF;endArrow=none;endFill=0;strokeColor=#FF6602;strokeWidth=3;" parent="1" source="E4SNyfFL3VlagMdcjmCh-20" target="E4SNyfFL3VlagMdcjmCh-9" edge="1">
          <mxGeometry relative="1" as="geometry" />
        </mxCell>
        <mxCell id="E4SNyfFL3VlagMdcjmCh-20" value="price" style="ellipse;whiteSpace=wrap;html=1;fillColor=#FFE598;fontSize=16;" parent="1" vertex="1">
          <mxGeometry x="790" y="290" width="90" height="60" as="geometry" />
        </mxCell>
        <mxCell id="E4SNyfFL3VlagMdcjmCh-28" style="edgeStyle=none;rounded=0;orthogonalLoop=1;jettySize=auto;html=1;entryX=0.5;entryY=0;entryDx=0;entryDy=0;fontSize=16;fontColor=#FFFFFF;endArrow=none;endFill=0;strokeColor=#FF6602;strokeWidth=3;" parent="1" source="E4SNyfFL3VlagMdcjmCh-21" target="E4SNyfFL3VlagMdcjmCh-9" edge="1">
          <mxGeometry relative="1" as="geometry" />
        </mxCell>
        <mxCell id="E4SNyfFL3VlagMdcjmCh-21" value="time" style="ellipse;whiteSpace=wrap;html=1;fillColor=#FFE598;fontSize=16;" parent="1" vertex="1">
          <mxGeometry x="760" y="180" width="90" height="60" as="geometry" />
        </mxCell>
        <mxCell id="E4SNyfFL3VlagMdcjmCh-29" style="edgeStyle=none;rounded=0;orthogonalLoop=1;jettySize=auto;html=1;fontSize=16;fontColor=#FFFFFF;endArrow=none;endFill=0;strokeColor=#FF6602;strokeWidth=3;" parent="1" source="E4SNyfFL3VlagMdcjmCh-22" target="E4SNyfFL3VlagMdcjmCh-9" edge="1">
          <mxGeometry relative="1" as="geometry" />
        </mxCell>
        <mxCell id="E4SNyfFL3VlagMdcjmCh-22" value="destination" style="ellipse;whiteSpace=wrap;html=1;fillColor=#FFE598;fontSize=16;" parent="1" vertex="1">
          <mxGeometry x="630" y="140" width="90" height="60" as="geometry" />
        </mxCell>
        <mxCell id="E4SNyfFL3VlagMdcjmCh-30" style="edgeStyle=none;rounded=0;orthogonalLoop=1;jettySize=auto;html=1;fontSize=16;fontColor=#FFFFFF;endArrow=none;endFill=0;strokeColor=#FF6602;strokeWidth=3;exitX=0.5;exitY=0;exitDx=0;exitDy=0;" parent="1" source="E4SNyfFL3VlagMdcjmCh-10" target="E4SNyfFL3VlagMdcjmCh-1" edge="1">
          <mxGeometry relative="1" as="geometry">
            <mxPoint x="426.4123443098334" y="413.2831134928323" as="sourcePoint" />
            <mxPoint x="413.58" y="354" as="targetPoint" />
          </mxGeometry>
        </mxCell>
        <mxCell id="E4SNyfFL3VlagMdcjmCh-31" style="edgeStyle=none;rounded=0;orthogonalLoop=1;jettySize=auto;html=1;fontSize=16;fontColor=#FFFFFF;endArrow=none;endFill=0;strokeColor=#FF6602;strokeWidth=3;entryX=0;entryY=0.5;entryDx=0;entryDy=0;" parent="1" source="E4SNyfFL3VlagMdcjmCh-1" target="E4SNyfFL3VlagMdcjmCh-9" edge="1">
          <mxGeometry relative="1" as="geometry">
            <mxPoint x="335" y="399" as="sourcePoint" />
            <mxPoint x="397.9775280898875" y="340" as="targetPoint" />
          </mxGeometry>
        </mxCell>
      </root>
    </mxGraphModel>
  </diagram>
</mxfile>
